<svg width="142" height="90" viewBox="0 0 142 90" fill="none" xmlns="http://www.w3.org/2000/svg">
<g clip-path="url(#clip0_1_12)">
<path d="M132.433 48.501C132.433 48.9015 132.433 49.2975 132.428 49.698C132.419 50.436 132.397 51.1785 132.371 51.912C131.749 67.2525 126.961 81.558 126.961 81.558L98.9208 81.567H96.529H92.1048H85.0713H79.0408L66.9175 81.5715H64.2639H58.2378L49.558 81.576L40.8783 81.5805L14.0003 81.5895C8.59547 71.28 13.4368 67.563 17.009 62.298C18.9215 59.481 20.4702 56.2185 19.8889 51.2595C19.6848 49.5405 19.2277 47.619 18.4378 45.441C18.0828 44.4645 17.9719 43.4475 17.8033 42.4755C17.7278 42.039 17.6613 41.6025 17.6036 41.1705C17.5858 41.058 17.5725 40.941 17.5592 40.8285C14.7902 18.432 26.3765 7.88401 44.4017 6.11551C58.544 4.72501 64.4103 8.94151 68.1245 12.285C80.4164 23.346 81.3572 12.9015 107.667 15.2145C121.934 16.47 128.514 25.1505 131.066 35.847C131.239 36.576 131.394 37.314 131.532 38.061C131.603 38.457 131.674 38.853 131.736 39.2535C131.851 39.987 131.954 40.725 132.038 41.4675C132.087 41.886 132.131 42.309 132.167 42.732C132.233 43.4655 132.286 44.208 132.326 44.946C132.348 45.387 132.371 45.828 132.384 46.269C132.419 47.025 132.433 47.763 132.433 48.501Z" fill="#FFBE2E"/>
<g clip-path="url(#clip1_1_12)">
<path d="M122.336 6.12145C120.96 4.6913 118.69 4.65164 117.265 6.03286C117.236 6.06176 117.206 6.09129 117.177 6.12145L58.746 64.7764L39.7638 45.7216C38.3391 44.3404 36.0688 44.38 34.6929 45.8102C33.3505 47.2053 33.3505 49.417 34.6929 50.8121L56.2105 72.4121C57.6111 73.8176 59.8811 73.8176 61.2815 72.4121L122.248 11.212C123.673 9.83058 123.712 7.55161 122.336 6.12145Z" fill="#3E3B3B"/>
</g>
</g>
<defs>
<clipPath id="clip0_1_12">
<rect width="142" height="90" fill="white"/>
</clipPath>
<clipPath id="clip1_1_12">
<rect width="89.6569" height="90" fill="white" transform="translate(33.6861 -5.75581)"/>
</clipPath>
</defs>
</svg>
